<?xml version="1.0" encoding="utf-8"?>
<!-- Generator: Adobe Illustrator 22.0.1, SVG Export Plug-In . SVG Version: 6.00 Build 0)  -->
<svg version="1.1" id="Layer_1" xmlns="http://www.w3.org/2000/svg" xmlns:xlink="http://www.w3.org/1999/xlink" x="0px" y="0px"
	 viewBox="0 0 300 300" style="enable-background:new 0 0 300 300;" xml:space="preserve">
<style type="text/css">
	.st0{opacity:0.7;}
	.st1{fill:#231F20;}
</style>
<g class="st0">
	<g>
		<path class="st1" d="M151.3,24.4c0,0.8-0.7,1.4-1.6,1.4l0,0c-0.9,0-1.6-0.6-1.6-1.4V7.3c0-0.8,0.7-1.4,1.6-1.4l0,0
			c0.9,0,1.6,0.6,1.6,1.4V24.4z"/>
		<path class="st1" d="M151.3,294.3c0,0.8-0.7,1.4-1.6,1.4l0,0c-0.9,0-1.6-0.7-1.6-1.4v-17.1c0-0.8,0.7-1.4,1.6-1.4l0,0
			c0.9,0,1.6,0.6,1.6,1.4V294.3z"/>
	</g>
	<g>
		<path class="st1" d="M219.9,37c-0.3,0.5-0.9,0.6-1.3,0.3l0,0c-0.5-0.3-0.6-0.9-0.3-1.3l6-9.9c0.3-0.5,0.9-0.6,1.3-0.3l0,0
			c0.5,0.3,0.6,0.9,0.3,1.3L219.9,37z"/>
		<path class="st1" d="M75.2,275.5c-0.3,0.5-0.9,0.6-1.3,0.3l0,0c-0.5-0.3-0.6-0.9-0.3-1.3l6-9.9c0.3-0.5,0.9-0.6,1.3-0.3l0,0
			c0.5,0.3,0.6,0.9,0.3,1.3L75.2,275.5z"/>
	</g>
	<g>
		<path class="st1" d="M267.5,87.6c-0.5,0.3-1.1,0.1-1.3-0.4l0,0c-0.3-0.5-0.1-1.1,0.4-1.3l10.1-5.5c0.5-0.3,1.1-0.1,1.3,0.4l0,0
			c0.3,0.5,0.1,1.1-0.4,1.3L267.5,87.6z"/>
		<path class="st1" d="M22.6,221.2c-0.5,0.3-1.1,0.1-1.3-0.4l0,0c-0.3-0.5-0.1-1.1,0.4-1.3l10.1-5.5c0.5-0.3,1.1-0.1,1.3,0.4l0,0
			c0.3,0.5,0.1,1.1-0.4,1.3L22.6,221.2z"/>
	</g>
	<g>
		<path class="st1" d="M263.5,221c-0.5-0.3-0.6-0.9-0.3-1.3l0,0c0.3-0.5,0.9-0.6,1.3-0.3l9.9,6c0.5,0.3,0.6,0.9,0.3,1.3l0,0
			c-0.3,0.5-0.9,0.6-1.3,0.3L263.5,221z"/>
		<path class="st1" d="M25,76.2c-0.5-0.3-0.6-0.9-0.3-1.3l0,0c0.3-0.5,0.9-0.6,1.3-0.3l9.9,6c0.5,0.3,0.6,0.9,0.3,1.3l0,0
			c-0.3,0.5-0.9,0.6-1.3,0.3L25,76.2z"/>
	</g>
	<g>
		<path class="st1" d="M212.9,268.6c-0.3-0.5-0.1-1.1,0.4-1.3l0,0c0.5-0.3,1.1-0.1,1.3,0.4l5.5,10.1c0.3,0.5,0.1,1.1-0.4,1.3l0,0
			c-0.5,0.3-1.1,0.1-1.3-0.4L212.9,268.6z"/>
		<path class="st1" d="M79.3,23.7c-0.3-0.5-0.1-1.1,0.4-1.3l0,0c0.5-0.3,1.1-0.1,1.3,0.4l5.5,10.1c0.3,0.5,0.1,1.1-0.4,1.3l0,0
			c-0.5,0.3-1.1,0.1-1.3-0.4L79.3,23.7z"/>
	</g>
	<g>
		<path class="st1" d="M276.1,152.4c-0.8,0-1.4-0.7-1.4-1.6l0,0c0-0.9,0.6-1.6,1.4-1.6h17.1c0.8,0,1.4,0.7,1.4,1.6l0,0
			c0,0.9-0.6,1.6-1.4,1.6H276.1z"/>
		<path class="st1" d="M6.2,152.4c-0.8,0-1.4-0.7-1.4-1.6l0,0c0-0.9,0.7-1.6,1.4-1.6h17.1c0.8,0,1.4,0.7,1.4,1.6l0,0
			c0,0.9-0.6,1.6-1.4,1.6H6.2z"/>
	</g>
</g>
</svg>
