<?xml version="1.0" encoding="utf-8"?>
<!-- Generator: Adobe Illustrator 16.0.0, SVG Export Plug-In . SVG Version: 6.00 Build 0)  -->
<!DOCTYPE svg PUBLIC "-//W3C//DTD SVG 1.1//EN" "http://www.w3.org/Graphics/SVG/1.1/DTD/svg11.dtd">
<svg version="1.1" id="Layer_1" xmlns="http://www.w3.org/2000/svg" xmlns:xlink="http://www.w3.org/1999/xlink" x="0px" y="0px"
	 width="192px" height="192px" viewBox="0 0 192 192" enable-background="new 0 0 192 192" xml:space="preserve">
<g>
	<path opacity="0.08" fill="#5A8C70" enable-background="new    " d="M158.823,33.176h13.088v128.265
		c0,5.791-4.679,10.471-10.471,10.471H30.559c-5.792,0-10.471-4.68-10.471-10.471V33.176h13.088H158.823z"/>
	<path fill="#7EBF9A" d="M20.088,33.176h151.823v28.794H20.088V33.176z"/>
	<g>
		<path fill="#22402F" d="M38.412,46.265c-2.879,0-5.235-2.356-5.235-5.235V25.324c0-2.879,2.356-5.235,5.235-5.235
			s5.235,2.356,5.235,5.235v15.706C43.647,43.909,41.291,46.265,38.412,46.265z"/>
		<path fill="#22402F" d="M67.206,46.265c-2.879,0-5.235-2.356-5.235-5.235V25.324c0-2.879,2.356-5.235,5.235-5.235
			s5.235,2.356,5.235,5.235v15.706C72.441,43.909,70.085,46.265,67.206,46.265z"/>
		<path fill="#22402F" d="M96,46.265c-2.879,0-5.235-2.356-5.235-5.235V25.324c0-2.879,2.356-5.235,5.235-5.235
			c2.88,0,5.235,2.356,5.235,5.235v15.706C101.235,43.909,98.88,46.265,96,46.265z"/>
		<path fill="#22402F" d="M124.794,46.265c-2.88,0-5.235-2.356-5.235-5.235V25.324c0-2.879,2.355-5.235,5.235-5.235
			c2.879,0,5.235,2.356,5.235,5.235v15.706C130.029,43.909,127.673,46.265,124.794,46.265z"/>
		<path fill="#22402F" d="M153.588,46.265c-2.88,0-5.235-2.356-5.235-5.235V25.324c0-2.879,2.355-5.235,5.235-5.235
			c2.879,0,5.235,2.356,5.235,5.235v15.706C158.823,43.909,156.467,46.265,153.588,46.265z"/>
	</g>
	<path fill="#DBD8D5" d="M67.206,72.441h20.941v20.94H67.206V72.441z"/>
	<path fill="#DBD8D5" d="M30.559,72.441H51.5v20.94H30.559V72.441z"/>
	<path fill="#DBD8D5" d="M103.853,72.441h20.941v20.94h-20.941V72.441z"/>
	<path fill="#DBD8D5" d="M140.5,72.441h20.94v20.94H140.5V72.441z"/>
	<path fill="#DBD8D5" d="M30.559,106.471H51.5v20.941H30.559V106.471z"/>
	<path fill="#22402F" d="M67.206,106.471h20.941v20.941H67.206V106.471z"/>
	<path fill="#22402F" d="M103.853,106.471h20.941v20.941h-20.941V106.471z"/>
	<path fill="#22402F" d="M140.5,106.471h20.94v20.941H140.5V106.471z"/>
	<path fill="#DBD8D5" d="M140.5,140.5h20.94v20.941H140.5V140.5z"/>
	<path fill="#DBD8D5" d="M30.559,140.5H51.5v20.941H30.559V140.5z"/>
	<path fill="#DBD8D5" d="M67.206,140.5h20.941v20.941H67.206V140.5z"/>
	<path fill="#DBD8D5" d="M103.853,140.5h20.941v20.941h-20.941V140.5z"/>
</g>
</svg>
