<?xml version="1.0" encoding="utf-8"?>
<!-- Generator: Adobe Illustrator 16.0.0, SVG Export Plug-In . SVG Version: 6.00 Build 0)  -->
<!DOCTYPE svg PUBLIC "-//W3C//DTD SVG 1.1//EN" "http://www.w3.org/Graphics/SVG/1.1/DTD/svg11.dtd">
<svg version="1.1" id="Layer_1" xmlns="http://www.w3.org/2000/svg" xmlns:xlink="http://www.w3.org/1999/xlink" x="0px" y="0px"
	 width="192px" height="192px" viewBox="0 0 192 192" enable-background="new 0 0 192 192" xml:space="preserve">
<g>
	<g id="XMLID_410_">
		<path id="XMLID_2166_" fill="#E3E9ED" d="M32.303,20.155h38.841v38.841H32.303V20.155z"/>
		<path id="XMLID_2358_" fill="#67A080" d="M32.303,39.561h38.841v19.406H32.303V39.561z"/>
		<path id="XMLID_2047_" opacity="0.6" fill="#768F9C" enable-background="new    " d="M86.135,25.043h27.731v8.947H86.135V25.043z"
			/>
		<path id="XMLID_2046_" fill="#22402F" d="M86.135,45.16h74.039v8.947H86.135V45.16z"/>
		<path id="XMLID_2041_" opacity="0.6" fill="#768F9C" enable-background="new    " d="M86.135,81.454h27.731v8.947H86.135V81.454z"
			/>
		<path id="XMLID_2040_" fill="#22402F" d="M86.135,101.6h74.039v8.948H86.135V101.6z"/>
		<path id="XMLID_2035_" opacity="0.6" fill="#768F9C" enable-background="new    " d="M86.135,137.893h27.731v8.947H86.135V137.893
			z"/>
		<path id="XMLID_2034_" fill="#22402F" d="M86.135,158.011h74.039v8.947H86.135V158.011z"/>
		<path id="XMLID_2031_" fill="#FFFFFF" d="M51.708,44.064c-2.459,0-4.474-2.015-4.474-4.474v-0.415
			c0-2.459,2.015-4.474,4.474-4.474s4.474,2.015,4.474,4.474v0.415C56.182,42.049,54.197,44.064,51.708,44.064z"/>
		<path id="XMLID_2347_" fill="#FFFFFF" d="M47.235,39.561c0,2.459,2.015,4.474,4.474,4.474s4.474-2.015,4.474-4.474H47.235z"/>
		<path id="XMLID_2045_" fill="#E3E9ED" d="M32.303,76.595h38.841v38.841H32.303V76.595z"/>
		<path id="XMLID_782_" fill="#67A080" d="M32.303,96h38.841v19.407H32.303V96z"/>
		<path id="XMLID_2033_" fill="#FFFFFF" d="M51.708,100.475c-2.459,0-4.474-2.015-4.474-4.474v-0.415
			c0-2.459,2.015-4.474,4.474-4.474s4.474,2.015,4.474,4.474V96C56.182,98.46,54.197,100.475,51.708,100.475z"/>
		<path id="XMLID_506_" fill="#FFFFFF" d="M47.235,96c0,2.459,2.015,4.474,4.474,4.474S56.182,98.46,56.182,96H47.235z"/>
		<path id="XMLID_2412_" fill="#E3E9ED" d="M32.303,133.006h38.841v38.84H32.303V133.006z"/>
		<path id="XMLID_2409_" fill="#67A080" d="M32.303,152.441h38.841v19.404H32.303V152.441z"/>
		<path id="XMLID_2411_" fill="#FFFFFF" d="M51.708,156.913c-2.459,0-4.474-2.015-4.474-4.472v-0.415
			c0-2.461,2.015-4.476,4.474-4.476s4.474,2.015,4.474,4.476v0.415C56.182,154.898,54.197,156.913,51.708,156.913z"/>
		<path id="XMLID_2408_" fill="#FFFFFF" d="M47.235,152.441c0,2.457,2.015,4.472,4.474,4.472s4.474-2.015,4.474-4.472H47.235z"/>
	</g>
</g>
</svg>
