<?xml version="1.0" encoding="utf-8"?>
<!-- Generator: Adobe Illustrator 16.0.0, SVG Export Plug-In . SVG Version: 6.00 Build 0)  -->
<!DOCTYPE svg PUBLIC "-//W3C//DTD SVG 1.1//EN" "http://www.w3.org/Graphics/SVG/1.1/DTD/svg11.dtd">
<svg version="1.1" id="Layer_1" xmlns="http://www.w3.org/2000/svg" xmlns:xlink="http://www.w3.org/1999/xlink" x="0px" y="0px"
	 width="192px" height="192px" viewBox="0 0 192 192" enable-background="new 0 0 192 192" xml:space="preserve">
<g>
	<g>
		<g>
			<path opacity="0.4" fill="#768F9C" enable-background="new    " d="M71.557,58.252c-7.461,0-13.507,6.046-13.507,13.507
				s6.046,13.507,13.507,13.507s13.508-6.046,13.508-13.507c0-0.059,0-0.118,0-0.207c0-7.344-5.958-13.301-13.301-13.301
				C71.704,58.252,71.616,58.252,71.557,58.252z M41.356,41.353c1.475-1.445,3.48-2.241,5.574-2.182l49.665-1.386
				c3.273-0.03,6.43,1.268,8.729,3.568l62.583,62.583c4.66,4.483,4.808,11.915,0.324,16.575c-0.088,0.118-0.206,0.206-0.324,0.324
				l-47.069,47.069c-4.483,4.66-11.915,4.808-16.575,0.325c-0.118-0.089-0.206-0.207-0.324-0.325l-62.583-62.582
				c-2.3-2.33-3.598-5.456-3.568-8.73l1.386-49.665C39.145,44.863,39.912,42.857,41.356,41.353z"/>
			<path fill="#22402F" d="M62.031,66.009c-1.062-0.03-2.035-0.442-2.772-1.18L21.302,26.873c-1.327-1.77-0.973-4.247,0.796-5.574
				c1.416-1.062,3.362-1.062,4.778,0l37.957,37.957c1.534,1.416,1.651,3.805,0.236,5.338c-0.059,0.088-0.147,0.147-0.236,0.236
				C64.065,65.566,63.063,65.979,62.031,66.009z"/>
		</g>
		<polygon fill="#22402F" points="149.033,110.1 110.104,149.029 76.541,115.261 115.265,76.538 		"/>
	</g>
</g>
</svg>
