<?xml version="1.0" encoding="utf-8"?>
<!-- Generator: Adobe Illustrator 22.0.1, SVG Export Plug-In . SVG Version: 6.00 Build 0)  -->
<svg version="1.1" id="Layer_1" xmlns="http://www.w3.org/2000/svg" xmlns:xlink="http://www.w3.org/1999/xlink" x="0px" y="0px"
	 viewBox="0 0 1000 1000" style="enable-background:new 0 0 1000 1000;" xml:space="preserve">
<style type="text/css">
	.st0{opacity:0.9;fill:#CCCCCC;enable-background:new    ;}
</style>
<g>
	<path class="st0" d="M500,227.7c-70.9,0-128.6,57.7-128.6,128.6S429.1,484.9,500,484.9s128.6-57.7,128.6-128.6
		S570.9,227.7,500,227.7z"/>
	<path class="st0" d="M500,10C229.4,10,10,229.4,10,500s219.4,490,490,490s490-219.4,490-490S770.6,10,500,10z M727.7,756.6
		c-13.4,0-24.2-10.8-24.2-24.2c0-111-89.4-197.9-203.5-197.9s-203.5,86.9-203.5,197.9c0,13.4-10.8,24.2-24.2,24.2
		c-13.4,0-24.2-10.8-24.2-24.2c0-67.1,26.3-129.5,74.1-175.7c23.5-22.7,50.9-40.3,80.8-52.3c-10-6.6-19.5-14.3-28.1-22.9
		c-33.4-33.4-51.8-77.9-51.8-125.2s18.4-91.7,51.8-125.2c33.4-33.4,77.9-51.8,125.2-51.8s91.7,18.4,125.2,51.8
		C658.6,264.6,677,309,677,356.3s-18.4,91.7-51.8,125.2c-8.7,8.7-18.1,16.3-28.2,22.9c29.9,12,57.4,29.6,80.8,52.3
		c47.8,46.2,74.1,108.6,74.1,175.7C751.9,745.7,741.1,756.6,727.7,756.6z"/>
</g>
</svg>
