<?xml version="1.0" encoding="utf-8"?>
<!-- Generator: Adobe Illustrator 22.0.1, SVG Export Plug-In . SVG Version: 6.00 Build 0)  -->
<svg version="1.1" id="Layer_1" xmlns="http://www.w3.org/2000/svg" xmlns:xlink="http://www.w3.org/1999/xlink" x="0px" y="0px"
	 viewBox="0 0 1366 768" style="enable-background:new 0 0 1366 768;" xml:space="preserve">
<style type="text/css">
	.st0{clip-path:url(#SVGID_2_);fill:url(#SVGID_3_);}
	.st1{clip-path:url(#SVGID_5_);}
	.st2{fill:url(#SVGID_6_);}
	.st3{fill:#FFFFFF;}
</style>
<g>
	<g>
		<defs>
			<rect id="SVGID_1_" x="-1" y="-1" width="1365" height="769"/>
		</defs>
		<clipPath id="SVGID_2_">
			<use xlink:href="#SVGID_1_"  style="overflow:visible;"/>
		</clipPath>
		
			<radialGradient id="SVGID_3_" cx="538.5001" cy="-233.45" r="468.303" gradientTransform="matrix(1 0 0 1 0 618)" gradientUnits="userSpaceOnUse">
			<stop  offset="0" style="stop-color:#3E4E88"/>
			<stop  offset="1" style="stop-color:#1A2C5B"/>
		</radialGradient>
		<path class="st0" d="M-0.5,0.3C176,0.2,352.5,0.1,529,0c9.3,0.3,26.8,2.1,45.1,12.8c6.2,3.6,19.7,11.8,30,28.3
			c3.3,5.3,11.7,20,12.3,39.5c0.3,9.2-0.4,25.3-4.6,36.8c-0.5,1.4-2.1,5.5-2.9,11.2c-0.3,2.2-0.9,7.5,0.1,13.9
			c1.8,12.5,8.1,21,9.8,23.2c10.1,13.1,25.3,19.1,35.4,19.3c1.2,0,2.9,0,6.3,0.1c7.9,0.3,11.5,1,17.9,1.5c6.5,0.5,10.8,0.4,13.2,0.4
			c10.5,0.1,31.3,3.1,52.2,9.9c27.3,8.8,47.8,21.7,60.3,30.9c41,30.1,60.2,67.3,66.3,80.3c34.9,73.9,15.3,144.7,9.2,159.4
			c-0.5,1.3-4.3,10.1-9.2,22.6c-2.9,7.3-8,20.6-9.9,26.4c-11.2,33.7-0.8,70.5,0.2,73.8c5.9,19.9,15.4,34.7,23,44.2
			c16,20.2,34,30.6,41.8,34.6c1.7,0.9,28.6,14.5,55.8,14.8c2.5,0,7.7,0,15,0.6c7.9,0.7,18.2,1.6,28.3,5.1
			c19.2,6.6,31.4,20.3,36.8,27.4c3.8,5,11,14.6,13.8,28.6c1.7,8.8,2.5,23.4,2.5,23.5H-0.7V0.3H-0.5z"/>
	</g>
	<g>
		<defs>
			<rect id="SVGID_4_" x="-1" y="-1" width="1365" height="769"/>
		</defs>
		<clipPath id="SVGID_5_">
			<use xlink:href="#SVGID_4_"  style="overflow:visible;"/>
		</clipPath>
		<g class="st1">
			
				<radialGradient id="SVGID_6_" cx="321.7924" cy="53.8865" r="192.7684" gradientTransform="matrix(1 0 0 1 0 618)" gradientUnits="userSpaceOnUse">
				<stop  offset="0" style="stop-color:#3E4E88"/>
				<stop  offset="1" style="stop-color:#1A2C5B"/>
			</radialGradient>
			<path class="st2" d="M120.1,598.8c8.3-66.9,120.5-121.4,209.4-107.6c170.5,26.4,231,299.4,173.2,351
				C432.9,904.4,104.8,721,120.1,598.8z"/>
			<path class="st3" d="M360.9,720.4c-8.5,8.5-40.6,0.2-60.1-15.8c-33.6-27.6-23.7-72.8-2.8-68.2
				C319.8,641.3,375.6,705.7,360.9,720.4z"/>
		</g>
	</g>
</g>
</svg>
