<?xml version="1.0" encoding="utf-8"?>
<!-- Generator: Adobe Illustrator 22.0.1, SVG Export Plug-In . SVG Version: 6.00 Build 0)  -->
<svg version="1.1" id="Layer_1" xmlns="http://www.w3.org/2000/svg" xmlns:xlink="http://www.w3.org/1999/xlink" x="0px" y="0px"
	 viewBox="0 0 64 64" style="enable-background:new 0 0 64 64;" xml:space="preserve">
<style type="text/css">
	.st0{display:none;}
	.st1{display:inline;fill:none;stroke:#12DF00;stroke-width:0.25;stroke-miterlimit:10;}
	.st2{display:inline;fill:none;stroke:#119F00;stroke-width:0.25;stroke-miterlimit:10;}
	.st3{opacity:0.8;fill:#DAE1E7;enable-background:new    ;}
	.st4{fill:#FFFFFF;}
</style>
<g id="hidden" class="st0">
	<circle class="st1" cx="32.5" cy="29.5" r="25"/>
	<circle class="st1" cx="32.8" cy="31.8" r="25"/>
	<circle class="st2" cx="32.5" cy="29.5" r="15.5"/>
	<circle class="st2" cx="32.8" cy="31.8" r="15.5"/>
</g>
<polygon class="st3" points="33,2.4 4,35.3 33,62.4 59.2,35.3 "/>
<g>
	<g id="border">
		<g>
			<path class="st4" d="M47.6,27.3c-0.7-2.3-1.8-4.4-3.4-6.2c-1.5-1.8-3.5-3.3-5.6-4.3c-4.2-2.1-9.5-2.3-13.6,0.2
				c-2.1,1.1-3.9,2.7-5.3,4.5c-1.3,1.9-2.4,4-2.7,6.3c-0.8,4.6,0.4,9.4,3,13.3s6.8,6.5,11.4,7.5c4.5,1,9.5,0.4,13.5-1.8
				c4.1-2.2,7.1-6.1,8.9-10.4c1.9-4.3,2-9.2,0.6-13.6c-1.4-4.5-4.1-8.5-7.8-11.3c-3.7-2.9-8.2-4.7-12.8-5.2
				C29.1,5.8,24.4,6.8,20.3,9c-4.1,2.3-7.5,5.8-9.8,9.8C5.9,27,6.4,37.7,11.4,45.7c1.3,2,2.8,3.8,4.5,5.4c1.8,1.5,3.8,2.8,5.9,3.8
				s4.4,1.6,6.8,2c2.3,0.4,4.7,0.5,7.1,0.4v0.1c-4.7,0.5-9.7-0.1-14.1-2c-2.2-1-4.3-2.2-6.1-3.8s-3.4-3.4-4.7-5.5
				c-5.2-8.2-5.7-19.2-1-27.7c2.4-4.2,5.9-7.8,10.1-10.2S29.1,4.8,34,5.3c4.8,0.5,9.5,2.4,13.4,5.3c3.9,3,6.8,7.2,8.2,11.8
				c0.7,2.3,1.1,4.8,1,7.2c-0.1,1.2-0.2,2.4-0.5,3.6c-0.3,1.2-0.7,2.3-1.2,3.5c-1.9,4.5-5,8.6-9.4,10.9c-4.3,2.3-9.5,2.9-14.2,1.9
				c-4.8-1.1-9.2-3.8-12-7.9c-2.7-4.1-3.9-9.1-3.1-14c0.4-2.4,1.4-4.7,2.9-6.7s3.5-3.5,5.7-4.5c4.4-2.2,9.7-1.9,13.9,0.2
				c2.1,1.1,4.1,2.5,5.6,4.4C45.8,22.8,46.9,25,47.6,27.3z"/>
		</g>
	</g>
	<g id="clock">
		<g>
			<path class="st4" d="M31.3,35.8c0-2.8,0.1-5.6,0.2-8.5c0.1-2.8,0.2-5.6,0.3-8.5c0.2,2.8,0.3,5.6,0.3,8.5c0.1,2.8,0.2,5.6,0.2,8.5
				H31.3z"/>
		</g>
		<g>
			<polygon class="st4" points="31.4,34.2 41.7,38.1 31.1,35.1 			"/>
		</g>
	</g>
</g>
</svg>
