<?xml version="1.0" encoding="utf-8"?>
<!-- Generator: Adobe Illustrator 22.0.1, SVG Export Plug-In . SVG Version: 6.00 Build 0)  -->
<svg version="1.1" id="Layer_1" xmlns="http://www.w3.org/2000/svg" xmlns:xlink="http://www.w3.org/1999/xlink" x="0px" y="0px"
	 viewBox="0 0 500 500" style="enable-background:new 0 0 500 500;" xml:space="preserve">
<style type="text/css">
	.st0{fill:#C3CFEE;}
	.st1{fill:#EBEBEB;}
	.st2{fill:#AFC0E9;}
	.st3{fill:#FFFFFF;}
	.st4{fill:#88A0DD;}
	.st5{opacity:0.7;fill:#88A0DD;enable-background:new    ;}
	.st6{fill:#F0F0F0;}
	.st7{fill:#E6E6E6;}
	.st8{fill:#FAFAFA;}
	.st9{fill:#3E4E88;}
	.st10{opacity:0.17;fill:#8FAAB3;enable-background:new    ;}
	.st11{fill:#27448B;}
	.st12{opacity:0.4;enable-background:new    ;}
	.st13{opacity:0.3;fill:#D7DFF4;enable-background:new    ;}
	.st14{fill:#6080D2;}
	.st15{opacity:0.17;fill:#AFC0E9;enable-background:new    ;}
	.st16{opacity:0.5;fill:#D7DFF4;enable-background:new    ;}
	.st17{fill:#263238;}
	.st18{fill:#407BFF;}
	.st19{fill:#FFC3BD;}
	.st20{fill:#ED847E;}
	.st21{opacity:0.2;enable-background:new    ;}
	.st22{opacity:0.8;fill:#263238;enable-background:new    ;}
	.st23{opacity:0.3;enable-background:new    ;}
</style>
<g id="background-complete--inject-2">
	<rect y="382.4" class="st0" width="500" height="0.3"/>
	<path class="st0" d="M237,337.8H43.9c-3.1,0-5.7-2.6-5.7-5.7V60.7c0-3.1,2.6-5.7,5.7-5.7H237c3.2,0,5.7,2.6,5.7,5.7l0,0v271.4
		C242.7,335.2,240.2,337.8,237,337.8z M43.9,55.2c-3,0-5.5,2.4-5.5,5.5v271.4c0,3,2.4,5.5,5.5,5.5H237c3,0,5.5-2.4,5.5-5.5V60.7
		c0-3-2.4-5.5-5.5-5.5H43.9z"/>
	<path class="st0" d="M453.3,337.8H260.2c-3.2,0-5.7-2.6-5.7-5.7V60.7c0-3.1,2.6-5.7,5.7-5.7h193.1c3.1,0,5.7,2.5,5.7,5.7v271.4
		C459,335.2,456.5,337.8,453.3,337.8z M260.2,55.2c-3,0-5.5,2.4-5.5,5.5v271.4c0,3,2.4,5.5,5.5,5.5h193.1c3,0,5.5-2.4,5.5-5.5V60.7
		c0-3-2.4-5.5-5.5-5.5H260.2z"/>
	<rect x="51.3" y="391.9" class="st1" width="26" height="0.3"/>
	<rect x="145.1" y="389.2" class="st1" width="45" height="0.3"/>
	<rect x="78.3" y="401.2" class="st1" width="60.8" height="0.3"/>
	<rect x="429.5" y="399.5" class="st0" width="19.2" height="0.3"/>
	<rect x="365.3" y="399.5" class="st0" width="55.3" height="0.3"/>
	<rect x="257" y="395.3" class="st0" width="74.5" height="0.3"/>
	<rect x="222.8" y="274.5" class="st2" width="42" height="107.9"/>
	<rect x="72.4" y="274.5" class="st0" width="150.5" height="107.9"/>
	<rect x="81.6" y="349.9" class="st3" width="25.1" height="22"/>
	<rect x="81.6" y="319.9" class="st4" width="25.1" height="22"/>
	<rect x="71.9" y="288.4" class="st5" width="192.9" height="4.3"/>
	<rect x="222.8" y="272.4" class="st6" width="44.4" height="17.5"/>
	<rect x="70" y="272.4" class="st0" width="152.8" height="17.5"/>
	<rect x="216.3" y="239.4" class="st4" width="32.7" height="33.3"/>
	<rect x="102.5" y="239.4" class="st0" width="113.8" height="33.3"/>
	<rect x="102.1" y="244.4" class="st5" width="146.8" height="2.7"/>
	<rect x="216.3" y="237.8" class="st6" width="34.5" height="7.8"/>
	<rect x="100.7" y="237.8" class="st0" width="115.6" height="7.8"/>
	<rect x="287.4" y="220.5" class="st4" width="32" height="161.9"/>
	<polygon class="st6" points="294.3,382.4 287.4,382.4 287.4,370.9 301.4,370.9 	"/>
	<rect x="394.1" y="220.5" class="st4" width="32" height="161.9"/>
	<rect x="287.4" y="220.5" class="st0" width="112.7" height="159.6"/>
	<rect x="292.7" y="227.6" class="st7" width="102.1" height="43.8"/>
	<path class="st8" d="M350.5,248.5c0,3.7-3,6.7-6.7,6.7s-6.7-3-6.7-6.7s3-6.7,6.7-6.7l0,0C347.5,241.8,350.5,244.8,350.5,248.5
		L350.5,248.5z"/>
	<polygon class="st6" points="393.3,382.4 400.1,382.4 400.1,370.9 386.1,370.9 	"/>
	<rect x="292.7" y="278.4" class="st4" width="102.1" height="94.6"/>
	<circle class="st8" cx="380.7" cy="292.5" r="6.7"/>
	<rect x="86.2" y="71.5" class="st7" width="329" height="131"/>
	<rect x="86.5" y="71.2" class="st4" width="329" height="131"/>
	<rect x="93.1" y="79.9" class="st3" width="312.3" height="114.2"/>
	<polygon class="st4" points="129.5,127.5 118.6,146.5 140.5,146.5 	"/>
	<rect x="168.6" y="128" class="st4" width="17.9" height="17.9"/>
	<polygon class="st4" points="225.6,125.5 213.6,134.3 218.2,148.5 233.1,148.5 237.7,134.3 	"/>
	<polygon class="st4" points="280,126 267.3,126 261,137 267.3,148 280,148 286.3,137 	"/>
	<polygon class="st7" points="321.7,124.9 311.8,129.7 309.3,140.5 316.2,149.1 327.2,149.1 334.1,140.5 331.6,129.7 	"/>
	<polygon class="st4" points="374.6,125.3 364.9,125.3 358,132.2 358,141.9 364.9,148.7 374.6,148.7 381.4,141.9 381.4,132.2 	"/>
</g>
<g id="Shadow--inject-2">
	<ellipse id="path--inject-2" class="st0" cx="250" cy="416.2" rx="193.9" ry="11.3"/>
</g>
<g id="to-do-list--inject-2">
	<path class="st9" d="M239.4,129.5H404c3.3,0,6,2.6,6,5.9c0,0.2,0,0.3,0,0.5l-13.4,216.3c-0.3,3.6-3.2,6.3-6.8,6.4H225.2
		c-3.3,0-6-2.7-6-6c0-0.1,0-0.3,0-0.4l13.4-216.3C232.9,132.3,235.8,129.6,239.4,129.5z"/>
	<path class="st10" d="M237.4,129.8h164.7c3.3,0,6,2.6,6,5.9c0,0.2,0,0.3,2,0.5l-13.4,216.3c-2.3,3.6-5.2,6.3-8.8,6.4H223.3
		c-3.3,0-6-2.7-6-6c0-0.1,0-0.3,0-0.4l13.4-216.3C230.9,132.6,233.9,129.9,237.4,129.8z"/>
	<path class="st11" d="M235.6,129.5h164.6c3.3,0,6,2.6,6,5.9c0,0.2,0,0.3,0,0.5l-13.4,216.3c-0.3,3.6-3.2,6.3-6.8,6.4H221.4
		c-3.3,0-6-2.7-6-6c0-0.1,0-0.3,0-0.4l13.4-216.3C229.1,132.3,232.1,129.6,235.6,129.5z"/>
	<polygon class="st12" points="224.3,346.9 384.6,348.9 397.6,139.3 237.2,139.3 	"/>
	<path class="st3" d="M219.7,344.8H382c8.9-81.9,11.7-126.1,12.9-208H232.6C231.4,218.7,228.6,262.9,219.7,344.8z"/>
	<path class="st13" d="M375.5,193.8h-27.9c-0.6,0-1.1-0.2-1.5-0.6c-0.4-0.4-0.6-1-0.6-2.5l1.7-27.9c0.1-0.1,1-0.9,2.1-0.9h28
		c1.1,0,2.1,0.9,2.1,2.1v0.1l-1.7,27.9C377.6,192.9,376.6,193.8,375.5,193.8L375.5,193.8z M349.7,189.6h23.8l1.5-23.8h-23.8
		L349.7,189.6z"/>
	<path class="st13" d="M372.8,236.3h-27.9c-0.6,0-1.1-0.2-1.5-0.6c-0.4-0.4-0.6-1-0.6-1.5l1.7-27.9c0.1-1.1,1-1.9,2.1-1.9h28
		c0.6,0,1.1,0.2,1.5,0.6c0.4,0.4,0.6,1,0.6,1.5l-1.7,27.9C374.8,235.5,373.9,236.3,372.8,236.3z M347.1,232.2h23.8l1.5-23.8h-23.8
		L347.1,232.2z"/>
	<path class="st13" d="M370.2,278.9h-27.9c-0.6,0-1.1-0.2-1.5-0.6s-0.6-1-0.5-1.5l1.7-27.9c0.1-1.1,1-1.9,2.1-1.9h28
		c0.6,0,1.1,0.2,1.5,0.6c0.4,0.4,0.6,1,0.6,1.5l-1.7,28C372.2,278.1,371.3,278.9,370.2,278.9z M344.5,274.8h23.8l1.5-23.8H346
		L344.5,274.8z"/>
	<path class="st13" d="M367.6,321.5h-27.9c-0.6,0-1.1-0.2-1.5-0.6s-0.6-1-0.5-1.5l1.7-28c0.1-1.1,1-1.9,2.1-1.9h27.9
		c0.6,0,1.1,0.2,1.5,0.6s0.6,1,0.6,1.5l-1.7,27.9C369.6,320.6,368.7,321.4,367.6,321.5z M341.8,316.3l23.8,1l1.5-23.8l-23.8-1
		L341.8,316.3z"/>
	<path class="st13" d="M259.9,174.1h63.3c2,0,3.6-1.5,3.7-3.5l0,0c0.1-1.8-1.2-3.3-3-3.5c-0.1,0-0.2,0-0.3-1h-63.3
		c-2,1-3.6,2.5-3.7,4.5l0,0c-0.1,1.8,1.2,3.3,3,3.5C259.7,174.1,259.8,174.1,259.9,174.1z"/>
	<path class="st13" d="M271,187.4h51.3c2,0,3.6-1.5,3.7-3.5l0,0c0.1-1.8-1.2-3.4-3-3.5c-0.1,0-0.2,0-0.3,0h-51.2
		c-2,0-3.6,1.5-3.7,3.5l0,0c-0.1,1.8,1.2,3.3,3,3.5C270.8,187.4,270.9,187.4,271,187.4z"/>
	<path class="st13" d="M256.8,223.9h63.3c1.8,0,3.3,1.4,3.3,3.2c0,0.1,0,0.2,0,0.3l0,0c-0.1,1.9-1.8,3.5-3.7,2.5h-63.3
		c-1.8,1-3.3-0.4-3.3-2.2c0-0.1,0-0.2,0-0.3l0,0C253.2,225.5,254.8,224,256.8,223.9z"/>
	<path class="st13" d="M269.7,208.6H321c1.8,0,3.3,1.4,3.3,3.2c0,0.1,0,0.2,0,0.3l0,0c-0.1,2-1.8,3.5-3.7,3.5h-51.3
		c-1.8,0-3.3-1.4-3.3-3.2c0-0.1,0-0.2,0-0.3l0,0C266.1,210.2,267.8,208.7,269.7,208.6z"/>
	<path class="st13" d="M254.6,258.2h63.3c2,0,3.6-1.5,3.7-3.5l0,0c0.1-1.8-1.2-3.3-3-3.5c-0.1,0-0.2,0-0.3,0H255
		c-2,0-3.6,1.5-3.7,3.5l0,0c-0.1,1.8,1.2,3.3,3,3.5C254.4,258.2,254.5,258.2,254.6,258.2z"/>
	<path class="st13" d="M291.5,272.5H317c2,0,3.6-1.5,3.7-3.5l0,0c0.1-1.8-1.2-3.4-3-3.5c-0.1,0-0.2,0-0.3,0H292
		c-2,0-3.6,1.6-3.7,3.5l0,0c-0.1,1.8,1.2,3.3,3,3.5C291.4,272.5,291.5,272.5,291.5,272.5z"/>
	<path class="st13" d="M265.8,272.5h13.4c2,0,3.6-1.5,3.7-3.5l0,0c0.1-1.8-1.2-3.4-3-3.5c-0.1,0-0.2,0-0.3,0h-13.4
		c-2,0-3.6,1.6-3.7,3.5l0,0c-0.1,1.8,1.2,3.3,3,3.5C265.6,272.5,265.7,272.5,265.8,272.5z"/>
	<path class="st13" d="M252,300.8h63.3c2,0,3.6-1.5,3.7-3.5l0,0c0.1-1.8-1.2-3.4-3-3.5c-0.1,0-0.2,0-0.3,0h-63.3
		c-2,0-3.6,1.5-3.7,3.5l0,0c-0.1,1.8,1.2,3.3,3,3.5C251.8,300.8,251.9,300.8,252,300.8z"/>
	<path class="st13" d="M263.1,315.1h51.3c2,0,3.6-1.6,3.7-3.5l0,0c0.1-1.8-1.2-3.3-3-3.5c-0.1,0-0.2,0-0.3,0h-51.2
		c-2,0-3.6,1.5-3.7,3.5l0,0c-0.1,1.8,1.2,3.4,3,3.5C262.9,315.1,263,315.1,263.1,315.1z"/>
	<path class="st11" d="M360.1,186.1c-0.4,0-0.8-0.1-1.2-0.4l-10.8-7.4c-0.9-0.7-1-2-0.3-2.9c0.6-0.8,1.8-1,2.7-0.5l9.2,6.3
		c3.4-4.1,12.9-15,20.9-18.6c1-0.5,2.3,0,2.7,1c0.5,1,0,2.3-1,2.7l0,0c-8.7,3.9-20.5,18.7-20.6,18.9
		C361.3,185.8,360.7,186.1,360.1,186.1z"/>
	<path class="st11" d="M355.1,227.8c-0.5,0-1.1-0.2-1.4-0.6l-9.4-9c-0.8-0.8-0.9-2.1-0.1-2.9s2.1-0.9,2.9-0.1l0,0l8,7.7
		c4-3.5,15-12.9,23.4-15.2c1.1-0.3,2.2,0.4,2.5,1.5s-0.4,2.2-1.5,2.5c-9.1,2.5-22.9,15.4-23.1,15.6
		C356.1,227.7,355.6,227.9,355.1,227.8z"/>
	<path class="st12" d="M337.6,141.7h3c3.4,0,6.1-2.7,6.2-6.1l0,0V130c0-0.3-0.3-0.6-0.6-0.6l0,0h-8.5c-0.4,0-0.7,0.3-0.7,0.7V141
		C337,141.4,337.2,141.7,337.6,141.7z"/>
	<path class="st14" d="M291.5,119.4h51.1c2.7-0.1,5,2.1,5.1,4.8c0,0.3,0,0.7-0.1,1l-1.5,11.4c-0.5,3.2-3.3,5.7-6.5,5.8h-51.1
		c-2.7,0.1-5-2.1-5.1-4.8c0-0.3,0-0.7,0.1-1l1.5-11.4C285.5,121.9,288.3,119.5,291.5,119.4z"/>
	<path class="st15" d="M291.3,119.6h51.1c2.7-0.1,5,2.1,5.1,4.8c0,0.3,0,0.7-0.1,1l-1.5,11.4c-0.5,3.2-3.3,5.7-6.5,5.8h-51.1
		c-2.7,0.1-5-2.1-5.1-4.8c0-0.3,0-0.7,0.1-1l1.5-11.4C285.3,122.2,288,119.7,291.3,119.6z"/>
	<path class="st16" d="M341.3,124.9h-23c-0.9,0.1-1.6-0.6-1.7-1.4c-0.1-0.9,0.6-1.6,1.4-1.7c0.1,0,0.2,0,0.2,0h23
		c0.9,0.1,1.5,0.8,1.4,1.7C342.6,124.2,342,124.8,341.3,124.9z"/>
	<path class="st16" d="M310.6,124.9h-2.4c-0.9,0.1-1.6-0.6-1.7-1.4c-0.1-0.9,0.6-1.6,1.4-1.7c0.1,0,0.2,0,0.2,0h2.4
		c0.9-0.1,1.6,0.6,1.7,1.4c0.1,0.9-0.6,1.6-1.4,1.7C310.8,124.9,310.7,124.9,310.6,124.9z"/>
</g>
<g id="Character--inject-2">
	<polygon class="st11" points="169.5,346.6 179.3,348.5 202.7,238.8 188.2,236.1 	"/>
	<polygon class="st17" points="204.1,162.6 216,158.8 216.8,154.5 205.8,154.1 	"/>
	<polygon class="st11" points="203.9,160.1 217.3,155.8 203.5,234.5 189,231.8 	"/>
	
		<rect x="194.7" y="228.6" transform="matrix(0.1903 -0.9817 0.9817 0.1903 -71.5762 383.8185)" class="st17" width="4.4" height="13.5"/>
	<path class="st18" d="M171.2,359.6c-0.1,0.6,0.1,1.3,0.6,1.3s0.9-0.4,1.1-1s-0.1-1.3-0.6-1.3S171.4,359,171.2,359.6z"/>
	<polygon class="st17" points="170.6,359.7 173.5,360.3 179.3,348.5 169.5,346.6 	"/>
	<path class="st17" d="M188.3,211.8c-0.7,0-1.2-0.6-1.2-1.3c0-0.2,0-0.4,0.1-0.5c6.2-13.3,11.2-41.1,11.9-47.7
		c0.2-1.9,1.4-3.6,3.2-4.4l3.3-1.4c0.6-0.3,1.4,0,1.6,0.6s0,1.4-0.6,1.6l0,0l-3.3,1.4c-1,0.4-1.6,1.3-1.8,2.4
		c-0.7,6.9-5.7,34.7-12.1,48.4C189.3,211.5,188.8,211.8,188.3,211.8z"/>
	<path class="st19" d="M142.3,158.8c-2.5,4.3-5,8.8-7.4,13.2c-1.2,2.2-2.3,4.5-3.4,6.7s-2.1,4.5-3,6.8l-0.2,0.4l0,0
		c0,0.1-0.1,0.1-0.1,0.2c-0.1,0.3-0.1,0.7-0.1,1c0,1,0.2,2,0.4,2.9c0.6,2.3,1.3,4.6,2.2,6.8c0.9,2.3,1.9,4.6,3,6.9s2.2,4.6,3.3,6.9
		l-4.8,3.2c-3.5-4.1-6.7-8.6-9.4-13.3c-1.4-2.5-2.7-5.1-3.7-7.8c-0.5-1.5-0.9-3.1-1.2-4.7c-0.1-1-0.2-2-0.1-2.9
		c0-0.6,0.1-1.2,0.2-1.7c0.1-0.3,0.2-0.6,0.3-0.9l0.2-0.5c1.6-5.2,3.6-10.3,6-15.2c2.3-4.9,4.9-9.6,7.8-14.2L142.3,158.8z"/>
	<path class="st19" d="M136.4,209.3l4.5,3.5l-6.8,5.6c0,0-3.1-3-2.6-6.7L136.4,209.3z"/>
	<polygon class="st19" points="142.6,217.8 138.1,223.7 134,218.4 140.8,212.7 	"/>
	<path class="st17" d="M168,117.1c0.1,0.6,0.6,1,0.9,1s0.6-0.6,0.5-1.2s-0.6-1-0.9-0.9S167.9,116.5,168,117.1z"/>
	<path class="st20" d="M168.5,118.2c1.1,1.7,2.4,3.2,3.9,4.6c-0.7,0.8-1.7,1.2-2.8,1.1L168.5,118.2z"/>
	<path class="st17" d="M165.1,114.2c-0.1,0-0.2,0-0.2-0.1c-0.1-0.1-0.1-0.4,0-0.5l0,0c0.8-0.9,1.9-1.3,3.1-1.2
		c0.2,0,0.3,0.2,0.3,0.4c0,0.2-0.2,0.3-0.4,0.3l0,0l0,0c-0.9-0.1-1.8,0.3-2.4,1C165.4,114.2,165.2,114.2,165.1,114.2z"/>
	<path class="st19" d="M150.8,125.6c1.1,5.6,2.2,15.9-1.7,19.6c0,0,1.5,5.7,11.9,5.7c11.4,0,5.5-5.7,5.5-5.7
		c-6.3-1.5-6.1-6.1-5-10.5L150.8,125.6z"/>
	<path class="st17" d="M146.9,145.7c-0.8-2,1-8,2.9-8.6c2.1-0.6,10-0.3,14,1.4c2.8,2.8,3.6,8.7,3.6,8.7L146.9,145.7z"/>
	<path class="st11" d="M114.2,407.5c0.6,0.2,1.3,0.2,1.9-0.1c0.2-0.2,0.3-0.6,0.2-0.8c-0.1-0.2-0.2-0.4-0.5-0.5
		c-1-0.5-3.4,0.5-3.5,0.5s-0.1,0.1-0.1,0.2s0,0.1,0.1,0.2C112.9,407.2,113.5,407.4,114.2,407.5z M115.4,406.3l0.2,0.1
		c0.1,0.1,0.2,0.2,0.3,0.3c0.1,0.3,0,0.4-0.1,0.5c-0.4,0.4-1.9,0-3-0.4C113.6,406.4,114.5,406.3,115.4,406.3z"/>
	<path class="st11" d="M112.3,406.9L112.3,406.9c1-0.3,2.8-1.6,2.8-2.4c0-0.3-0.2-0.5-0.5-0.6s-0.6-0.1-0.8,0.1
		c-1,0.5-1.7,2.6-1.7,2.7s0,0.1,0,0.2L112.3,406.9z M114.4,404.2L114.4,404.2c0.3,0.1,0.3,0.2,0.3,0.2c0,0.5-1.2,1.5-2.1,2
		c0.2-0.8,0.7-1.6,1.4-2.2C114.1,404.2,114.3,404.2,114.4,404.2z"/>
	<path class="st11" d="M169.4,408.8c1,0,1.9-0.1,2.3-0.6c0.2-0.2,0.2-0.6,0-0.8c-0.1-0.2-0.3-0.4-0.6-0.4c-1.3-0.4-3.9,1.2-4.1,1.2
		c-0.1,0-0.1,0.1-0.1,0.2s0.1,0.1,0.1,0.1C167.9,408.7,168.7,408.8,169.4,408.8z M170.7,407.3c0.1,0,0.2,0,0.4,0
		c0.1,0,0.3,0.1,0.4,0.3c0.1,0.2,0.1,0.3,0,0.4c-0.4,0.5-2.3,0.5-3.7,0.3C168.6,407.8,169.6,407.5,170.7,407.3z"/>
	<path class="st11" d="M167.1,408.6L167.1,408.6c1-0.4,2.8-2.1,2.7-2.9c0-0.2-0.2-0.5-0.7-0.5c-0.4,0-0.7,0.1-1,0.3
		c-1,0.8-1.2,2.9-1.2,3s0,0.1,0.1,0.2C167.1,408.6,167.1,408.6,167.1,408.6z M169,405.5h0.1c0.3,0,0.3,0.2,0.4,0.2
		c0.1,0.5-1.2,1.8-2.1,2.4c0.1-0.9,0.4-1.7,1-2.4C168.5,405.6,168.8,405.5,169,405.5L169,405.5z"/>
	<polygon class="st19" points="158.7,408.4 166.4,408.4 167.1,390.7 159.5,390.7 	"/>
	<polygon class="st19" points="103.4,404.9 111.1,406.5 116.6,390 108.8,388.4 	"/>
	<path class="st17" d="M112,405.7l-8.4-1.8c-0.3-0.1-0.6,0.1-0.8,0.4l-2.9,6.3c-0.3,0.6,0,1.2,0.6,1.5c0.1,0,0.2,0.1,0.2,0.1
		c2.9,0.6,4.4,0.7,8.1,1.5c2.3,0.5,7.4,1.7,10.6,2.4s4.2-2.3,3-2.9c-5.5-2.5-7.8-4.7-9.3-6.8C112.8,406.1,112.4,405.8,112,405.7z"/>
	<path class="st17" d="M166.3,407.5H158c-0.3,0-0.6,0.2-0.6,0.5l-1.5,6.8c-0.1,0.6,0.2,1.2,0.8,1.3c0.1,0,0.2,0,0.3,0
		c3,0,7.4-0.2,11.2-0.2c4.4,0,2.7,0.2,7.9,0.2c3.1,0,4-3.2,2.7-3.5c-6-1.3-5.3-1.5-10.5-4.6C167.7,407.8,167,407.5,166.3,407.5z"/>
	<path class="st17" d="M135.4,147c-7.2,1.6-13.1,20-13.1,20l14.4,11c3.7-4,6.4-8.9,7.6-14.2C146.8,154.2,142.7,145.3,135.4,147z"/>
	<path class="st21" d="M141.5,160.4c-3.9,3.9-5.2,10.9-5.5,17l0.6,0.5c3.7-4,6.4-8.9,7.6-14.2c0.1-0.6,0.3-1.1,0.4-1.7L141.5,160.4z
		"/>
	<path class="st17" d="M178.3,147.4c0,0,8.1,9.2,0.4,66.2h-41c-0.3-6.3,3.7-37-2.4-66.6c4.5-0.9,9.1-1.5,13.7-1.7
		c5.8-0.3,11.6-0.3,17.4,0C170.4,145.6,174.4,146.3,178.3,147.4z"/>
	<polygon class="st21" points="167.1,390.7 166.7,399.8 159.1,399.8 159.5,390.7 	"/>
	<polygon class="st21" points="108.8,388.4 116.6,390 113.7,398.5 106.1,396.9 	"/>
	<path class="st19" d="M147.6,119.9c2,7.3,2.7,11.7,7.3,14.8c6.8,4.6,15.3-0.7,15.6-8.5c0.2-7-3-17.8-10.9-19.3
		c-5.6-1.1-11.1,2.6-12.1,8.2C147.1,116.7,147.2,118.4,147.6,119.9z"/>
	<path class="st19" d="M154.9,133.9h-0.1c-2.4,0-4.7-1.1-6.1-3.1c-2.3-3.2-5.5-8.8-5.9-15.2c2.9-3.1,13.9-5.1,18.8-4
		c4.1,0.9,3.5,12.5-0.4,18.8C159.9,132.6,157.5,133.9,154.9,133.9z"/>
	<path class="st22" d="M154.9,133.9h-0.1c-2.4,0-4.7-1.1-6.1-3.1c-2.3-3.2-5.5-8.8-5.9-15.2c2.9-3.1,13.9-5.1,18.8-4
		c4.1,0.9,3.5,12.5-0.4,18.8C159.9,132.6,157.5,133.9,154.9,133.9z"/>
	<path class="st17" d="M147.3,118.2c-2.7-0.1-5.1-1.8-6-4.3c-0.9-2.6,0.1-8.1,5.3-8.3s5.8-3.1,4.2-3.8c3.4,0.3,2.3,2.6,2.3,2.6
		c0.9,0,1.8-2.4,7-2.3s7.8-0.9,7.1-2.1c2.5,0.5,1.8,3.5-0.3,4.3c0,0,4.9,3.8,6.1,1.7c0.8,1.5-0.8,3.3-7.1,2.5
		c2.5,3.5-3.4,2.7-5.9,4.3S150.7,118.4,147.3,118.2z"/>
	<path class="st19" d="M160.1,119.6c0.5,1.8,1.6,3.4,3.1,4.6c2,1.5,3.5,0,3.3-2.2c-0.1-2-1.3-5.3-3.5-5.8S159.5,117.4,160.1,119.6z"
		/>
	<path class="st17" d="M164.2,213.6c0,0-8.7,58.5-13.5,80.5c-5.2,24-33.3,103.5-33.3,103.5l-13.7-3c0,0,19.6-64.8,24-98.3
		c3.4-25.8,10-82.6,10-82.6L164.2,213.6z"/>
	<path class="st11" d="M120.8,392.9l-2.6,5l-15.4-3.3l1.3-4.6L120.8,392.9z"/>
	<path class="st23" d="M158.7,234.4c-10.1,2-9,39.5-7.8,58.7c2.9-13.6,7.1-39.9,10-58.5C160.2,234.4,159.4,234.3,158.7,234.4z"/>
	<path class="st17" d="M178.7,213.6c0,0,1.1,57.3,0.2,80.6c-0.9,24.3-9.4,103.9-9.4,103.9h-13c0,0-0.5-78.1-1.1-102
		c-0.6-26-3.8-82.5-3.8-82.5H178.7z"/>
	<path class="st11" d="M172.1,392.9c0.1,0-0.7,5.4-0.7,5.4h-15.8l-0.4-4.8L172.1,392.9z"/>
	<path class="st11" d="M178.5,146.4c2,0.8,3.9,2.3,4.5,7.3c0.6,4.8-0.5,46.4-1.8,59.7c0,0.9-0.8,1.7-1.7,1.8
		c-8.2,0.4-33.6-3.1-42.1-1.6c-1,0.2-1.9-0.9-1.8-1.9c0.7-12.9-0.3-33.9-1.9-47.1c-1-8.7-1-17.7,6.2-19.3
		C145.3,144.1,170.6,143.1,178.5,146.4z"/>
	<path class="st19" d="M181.6,157.9c0.5,2.2,1,4.6,1.5,6.9s1.1,4.6,1.8,6.8s1.3,4.5,2.1,6.6c0.7,2,1.5,3.9,2.6,5.8
		c0.4,0.7,0.8,1.4,1.3,2c0.2,0.2,0.3,0.4,0.4,0.4s0,0.1,0.2,0.1c0.6,0.2,1.3,0.3,2,0.3c1,0,2-0.2,3-0.3c4.5-1,8.9-2.3,13.3-3.9
		l2.9,5c-4.1,3.3-8.8,6-13.7,7.8c-1.4,0.5-2.8,0.9-4.3,1.1c-1.8,0.3-3.6,0.4-5.3,0.1c-1.1-0.2-2.2-0.6-3.3-1.1
		c-0.9-0.5-1.8-1.1-2.5-1.9c-1.2-1.1-2.3-2.4-3.2-3.8c-2.8-4.6-5-9.6-6.5-14.9c-0.8-2.5-1.4-4.9-2-7.4s-1.1-4.9-1.6-7.6L181.6,157.9
		z"/>
	<path class="st17" d="M164.8,154.9c-6.2,12.5,8.6,26.6,8.6,26.6l16.5-8.6c-1.2-6.6-3-13.1-5.6-19.3
		C179.4,142.9,168.4,147.7,164.8,154.9z"/>
	<path class="st19" d="M208.1,183.2l5.6-3.7l2.3,8.4c0,0-2.5,2.9-7.1-0.3L208.1,183.2z"/>
	<path class="st19" d="M218.6,182.9l-0.2,1.8c-0.1,0.8-0.5,1.6-1.1,2.2l-1.2,1l-2.3-8.4l0.7-0.2c1.8-0.5,3.6,0.6,4.1,2.4
		C218.6,182.1,218.6,182.5,218.6,182.9z"/>
</g>
</svg>
