<?xml version="1.0" encoding="utf-8"?>
<!-- Generator: Adobe Illustrator 22.0.1, SVG Export Plug-In . SVG Version: 6.00 Build 0)  -->
<svg version="1.1" id="Layer_1" xmlns="http://www.w3.org/2000/svg" xmlns:xlink="http://www.w3.org/1999/xlink" x="0px" y="0px"
	 viewBox="0 0 512 301.1" style="enable-background:new 0 0 512 301.1;" xml:space="preserve">
<style type="text/css">
	.st0{fill:#CB001C;}
	.st1{fill:#FFFFFF;}
	.st2{fill:#2A3560;}
</style>
<g>
	<rect y="274.7" class="st0" width="512" height="23"/>
	<rect y="251.7" class="st1" width="512" height="23"/>
	<rect y="228.7" class="st0" width="512" height="23"/>
	<rect y="205.7" class="st1" width="512" height="23"/>
	<rect y="182.8" class="st0" width="512" height="23"/>
	<rect y="159.8" class="st1" width="512" height="23"/>
	<rect y="136.8" class="st0" width="512" height="23"/>
	<rect y="113.8" class="st1" width="512" height="23"/>
	<rect y="90.9" class="st0" width="512" height="23"/>
	<rect y="67.9" class="st1" width="512" height="23"/>
	<rect y="44.9" class="st0" width="512" height="23"/>
	<rect y="21.9" class="st1" width="512" height="23"/>
	<rect y="-1" class="st0" width="512" height="23"/>
	<rect y="-1" class="st2" width="233.8" height="160.8"/>
	<polygon class="st1" points="21.1,16.7 23.1,22.8 29.4,22.8 24.3,26.5 26.2,32.6 21.1,28.8 15.9,32.6 17.9,26.5 12.7,22.8 
		19.1,22.8 	"/>
	<polygon class="st1" points="21.1,43.5 23.1,49.6 29.4,49.6 24.3,53.4 26.2,59.4 21.1,55.7 15.9,59.4 17.9,53.4 12.7,49.6 
		19.1,49.6 	"/>
	<polygon class="st1" points="21.1,70.4 23.1,76.5 29.4,76.5 24.3,80.2 26.2,86.3 21.1,82.5 15.9,86.3 17.9,80.2 12.7,76.5 
		19.1,76.5 	"/>
	<polygon class="st1" points="21.1,97.2 23.1,103.3 29.4,103.3 24.3,107.1 26.2,113.1 21.1,109.4 15.9,113.1 17.9,107.1 12.7,103.3 
		19.1,103.3 	"/>
	<polygon class="st1" points="21.1,124.1 23.1,130.1 29.4,130.1 24.3,133.9 26.2,140 21.1,136.2 15.9,140 17.9,133.9 12.7,130.1 
		19.1,130.1 	"/>
	<polygon class="st1" points="39.8,30.8 41.8,36.9 48.1,36.9 43,40.7 44.9,46.7 39.8,43 34.6,46.7 36.6,40.7 31.4,36.9 37.8,36.9 	
		"/>
	<polygon class="st1" points="39.8,57.7 41.8,63.7 48.1,63.7 43,67.5 44.9,73.6 39.8,69.8 34.6,73.6 36.6,67.5 31.4,63.7 37.8,63.7 
			"/>
	<polygon class="st1" points="39.8,84.5 41.8,90.6 48.1,90.6 43,94.4 44.9,100.4 39.8,96.7 34.6,100.4 36.6,94.4 31.4,90.6 
		37.8,90.6 	"/>
	<polygon class="st1" points="39.8,111.4 41.8,117.4 48.1,117.4 43,121.2 44.9,127.3 39.8,123.5 34.6,127.3 36.6,121.2 31.4,117.4 
		37.8,117.4 	"/>
	<polygon class="st1" points="58.7,16.7 60.7,22.8 67.1,22.8 61.9,26.5 63.9,32.6 58.7,28.8 53.5,32.6 55.5,26.5 50.3,22.8 
		56.7,22.8 	"/>
	<polygon class="st1" points="58.7,43.5 60.7,49.6 67.1,49.6 61.9,53.4 63.9,59.4 58.7,55.7 53.5,59.4 55.5,53.4 50.3,49.6 
		56.7,49.6 	"/>
	<polygon class="st1" points="58.7,70.4 60.7,76.5 67.1,76.5 61.9,80.2 63.9,86.3 58.7,82.5 53.5,86.3 55.5,80.2 50.3,76.5 
		56.7,76.5 	"/>
	<polygon class="st1" points="58.7,97.2 60.7,103.3 67.1,103.3 61.9,107.1 63.9,113.1 58.7,109.4 53.5,113.1 55.5,107.1 50.3,103.3 
		56.7,103.3 	"/>
	<polygon class="st1" points="58.7,124.1 60.7,130.1 67.1,130.1 61.9,133.9 63.9,140 58.7,136.2 53.5,140 55.5,133.9 50.3,130.1 
		56.7,130.1 	"/>
	<polygon class="st1" points="77.4,30.8 79.4,36.9 85.8,36.9 80.6,40.7 82.6,46.7 77.4,43 72.2,46.7 74.2,40.7 69,36.9 75.4,36.9 	
		"/>
	<polygon class="st1" points="77.4,57.7 79.4,63.7 85.8,63.7 80.6,67.5 82.6,73.6 77.4,69.8 72.2,73.6 74.2,67.5 69,63.7 75.4,63.7 
			"/>
	<polygon class="st1" points="77.4,84.5 79.4,90.6 85.8,90.6 80.6,94.4 82.6,100.4 77.4,96.7 72.2,100.4 74.2,94.4 69,90.6 
		75.4,90.6 	"/>
	<polygon class="st1" points="77.4,111.4 79.4,117.4 85.8,117.4 80.6,121.2 82.6,127.3 77.4,123.5 72.2,127.3 74.2,121.2 69,117.4 
		75.4,117.4 	"/>
	<polygon class="st1" points="96.3,16.7 98.3,22.8 104.7,22.8 99.5,26.5 101.5,32.6 96.3,28.8 91.2,32.6 93.2,26.5 88,22.8 
		94.4,22.8 	"/>
	<polygon class="st1" points="96.3,43.5 98.3,49.6 104.7,49.6 99.5,53.4 101.5,59.4 96.3,55.7 91.2,59.4 93.2,53.4 88,49.6 
		94.4,49.6 	"/>
	<polygon class="st1" points="96.3,70.4 98.3,76.5 104.7,76.5 99.5,80.2 101.5,86.3 96.3,82.5 91.2,86.3 93.2,80.2 88,76.5 
		94.4,76.5 	"/>
	<polygon class="st1" points="96.3,97.2 98.3,103.3 104.7,103.3 99.5,107.1 101.5,113.1 96.3,109.4 91.2,113.1 93.2,107.1 88,103.3 
		94.4,103.3 	"/>
	<polygon class="st1" points="96.3,124.1 98.3,130.1 104.7,130.1 99.5,133.9 101.5,140 96.3,136.2 91.2,140 93.2,133.9 88,130.1 
		94.4,130.1 	"/>
	<polygon class="st1" points="115,30.8 117,36.9 123.4,36.9 118.2,40.7 120.2,46.7 115,43 109.9,46.7 111.8,40.7 106.7,36.9 
		113.1,36.9 	"/>
	<polygon class="st1" points="115,57.7 117,63.7 123.4,63.7 118.2,67.5 120.2,73.6 115,69.8 109.9,73.6 111.8,67.5 106.7,63.7 
		113.1,63.7 	"/>
	<polygon class="st1" points="115,84.5 117,90.6 123.4,90.6 118.2,94.4 120.2,100.4 115,96.7 109.9,100.4 111.8,94.4 106.7,90.6 
		113.1,90.6 	"/>
	<polygon class="st1" points="115,111.4 117,117.4 123.4,117.4 118.2,121.2 120.2,127.3 115,123.5 109.9,127.3 111.8,121.2 
		106.7,117.4 113.1,117.4 	"/>
	<polygon class="st1" points="134,16.7 136,22.8 142.3,22.8 137.2,26.5 139.1,32.6 134,28.8 128.8,32.6 130.8,26.5 125.6,22.8 
		132,22.8 	"/>
	<polygon class="st1" points="134,43.5 136,49.6 142.3,49.6 137.2,53.4 139.1,59.4 134,55.7 128.8,59.4 130.8,53.4 125.6,49.6 
		132,49.6 	"/>
	<polygon class="st1" points="134,70.4 136,76.5 142.3,76.5 137.2,80.2 139.1,86.3 134,82.5 128.8,86.3 130.8,80.2 125.6,76.5 
		132,76.5 	"/>
	<polygon class="st1" points="134,97.2 136,103.3 142.3,103.3 137.2,107.1 139.1,113.1 134,109.4 128.8,113.1 130.8,107.1 
		125.6,103.3 132,103.3 	"/>
	<polygon class="st1" points="134,124.1 136,130.1 142.3,130.1 137.2,133.9 139.1,140 134,136.2 128.8,140 130.8,133.9 125.6,130.1 
		132,130.1 	"/>
	<polygon class="st1" points="152.7,30.8 154.6,36.9 161,36.9 155.9,40.7 157.8,46.7 152.7,43 147.5,46.7 149.5,40.7 144.3,36.9 
		150.7,36.9 	"/>
	<polygon class="st1" points="152.7,57.7 154.6,63.7 161,63.7 155.9,67.5 157.8,73.6 152.7,69.8 147.5,73.6 149.5,67.5 144.3,63.7 
		150.7,63.7 	"/>
	<polygon class="st1" points="152.7,84.5 154.6,90.6 161,90.6 155.9,94.4 157.8,100.4 152.7,96.7 147.5,100.4 149.5,94.4 
		144.3,90.6 150.7,90.6 	"/>
	<polygon class="st1" points="152.7,111.4 154.6,117.4 161,117.4 155.9,121.2 157.8,127.3 152.7,123.5 147.5,127.3 149.5,121.2 
		144.3,117.4 150.7,117.4 	"/>
	<polygon class="st1" points="171.6,16.7 173.6,22.8 180,22.8 174.8,26.5 176.8,32.6 171.6,28.8 166.4,32.6 168.4,26.5 163.2,22.8 
		169.6,22.8 	"/>
	<polygon class="st1" points="171.6,43.5 173.6,49.6 180,49.6 174.8,53.4 176.8,59.4 171.6,55.7 166.4,59.4 168.4,53.4 163.2,49.6 
		169.6,49.6 	"/>
	<polygon class="st1" points="171.6,70.4 173.6,76.5 180,76.5 174.8,80.2 176.8,86.3 171.6,82.5 166.4,86.3 168.4,80.2 163.2,76.5 
		169.6,76.5 	"/>
	<polygon class="st1" points="171.6,97.2 173.6,103.3 180,103.3 174.8,107.1 176.8,113.1 171.6,109.4 166.4,113.1 168.4,107.1 
		163.2,103.3 169.6,103.3 	"/>
	<polygon class="st1" points="171.6,124.1 173.6,130.1 180,130.1 174.8,133.9 176.8,140 171.6,136.2 166.4,140 168.4,133.9 
		163.2,130.1 169.6,130.1 	"/>
	<polygon class="st1" points="190.3,30.8 192.3,36.9 198.7,36.9 193.5,40.7 195.5,46.7 190.3,43 185.1,46.7 187.1,40.7 181.9,36.9 
		188.3,36.9 	"/>
	<polygon class="st1" points="190.3,57.7 192.3,63.7 198.7,63.7 193.5,67.5 195.5,73.6 190.3,69.8 185.1,73.6 187.1,67.5 
		181.9,63.7 188.3,63.7 	"/>
	<polygon class="st1" points="190.3,84.5 192.3,90.6 198.7,90.6 193.5,94.4 195.5,100.4 190.3,96.7 185.1,100.4 187.1,94.4 
		181.9,90.6 188.3,90.6 	"/>
	<polygon class="st1" points="190.3,111.4 192.3,117.4 198.7,117.4 193.5,121.2 195.5,127.3 190.3,123.5 185.1,127.3 187.1,121.2 
		181.9,117.4 188.3,117.4 	"/>
	<polygon class="st1" points="209.2,16.7 211.2,22.8 217.6,22.8 212.4,26.5 214.4,32.6 209.2,28.8 204.1,32.6 206,26.5 200.9,22.8 
		207.3,22.8 	"/>
	<polygon class="st1" points="209.2,43.5 211.2,49.6 217.6,49.6 212.4,53.4 214.4,59.4 209.2,55.7 204.1,59.4 206,53.4 200.9,49.6 
		207.3,49.6 	"/>
	<polygon class="st1" points="209.2,70.4 211.2,76.5 217.6,76.5 212.4,80.2 214.4,86.3 209.2,82.5 204.1,86.3 206,80.2 200.9,76.5 
		207.3,76.5 	"/>
	<polygon class="st1" points="209.2,97.2 211.2,103.3 217.6,103.3 212.4,107.1 214.4,113.1 209.2,109.4 204.1,113.1 206,107.1 
		200.9,103.3 207.3,103.3 	"/>
	<polygon class="st1" points="209.2,124.1 211.2,130.1 217.6,130.1 212.4,133.9 214.4,140 209.2,136.2 204.1,140 206,133.9 
		200.9,130.1 207.3,130.1 	"/>
</g>
</svg>
